<?xml version="1.0" encoding="utf-8"?>
<svg version="1.1" id="Layer_1" xmlns="http://www.w3.org/2000/svg" xmlns:xlink="http://www.w3.org/1999/xlink" x="0px" y="0px"
	 viewBox="0 0 480.4 182.6" style="enable-background:new 0 0 480.4 182.6;" xml:space="preserve">
<style type="text/css">
	.st0{fill:#666666;}
	.st1{fill:#0A4D89;}
	.st2{fill:#0476D9;}
	.st3{font-family:'EthnocentricRg-Regular';}
	.st4{font-size:21.0537px;}
</style>
<g>
	<polygon class="st0" points="168.6,137.2 150.7,178.3 80.2,178.3 98.1,137.2 	"/>
	<polygon class="st1" points="90.9,137.2 73,178.3 2.5,178.3 20.4,137.2 	"/>
	<polygon class="st2" points="241.9,137.2 241.9,178.3 157.9,178.3 175.8,137.2 	"/>
	<path class="st1" d="M149.8,64.4c5.4,1.6,10,4.7,13.8,9.4c3.8,4.7,5.6,10.7,5.6,18.1c0,5.2-0.8,10-2.4,14.3
		c-1.6,4.4-4.3,8.2-8.1,11.4c-3.8,3.2-9,5.7-15.4,7.6s-14.6,2.8-24.3,2.8H10.1V52.7h109.5c2.8,0,5.3-0.6,7.5-1.8
		c2.2-1.2,3.2-3.4,3.2-6.6c0-3.1-1.1-5.2-3.3-6.3c-2.2-1.1-4.7-1.7-7.4-1.7H10.1L36,4.2h82c7.4,0,14.1,0.7,20.1,2.1
		c6,1.4,11.1,3.6,15.4,6.5c4.3,2.9,7.5,6.5,9.8,10.7c2.3,4.3,3.4,9.2,3.4,14.9c0,3.7-0.5,7-1.5,9.8c-1,2.8-2.3,5.3-3.8,7.5
		c-1.5,2.2-3.3,3.9-5.4,5.4C153.9,62.5,151.9,63.6,149.8,64.4z M48.6,79.2v17h70.5c4.2,0,7.2-0.7,9.1-2.2c1.9-1.5,2.8-3.6,2.8-6.5
		c0-2.7-0.9-4.8-2.8-6.2c-1.9-1.4-4.9-2.1-9.1-2.1H48.6z"/>
	<g>
		<text transform="matrix(1 0 0 1 246.3634 164.8243)" class="st0 st3 st4">LOGISTICS LLC.</text>
	</g>
</g>
</svg>